<?xml version="1.0" standalone="no"?><!DOCTYPE svg PUBLIC "-//W3C//DTD SVG 1.1//EN" "http://www.w3.org/Graphics/SVG/1.1/DTD/svg11.dtd"><svg t="1740485773794" class="icon" viewBox="0 0 1024 1024" version="1.1" xmlns="http://www.w3.org/2000/svg" p-id="3692" xmlns:xlink="http://www.w3.org/1999/xlink" width="256" height="256"><path d="M463.233 678.921c-8.159-0.5-15.162 5.986-15.642 14.489s5.745 15.8 13.9 16.3 15.161-5.987 15.642-14.488-5.742-15.802-13.9-16.301z m0 92.529c-8.159-0.5-15.162 5.986-15.642 14.488s5.745 15.8 13.9 16.3 15.161-5.987 15.642-14.488-5.742-15.801-13.9-16.3zM441.212 383.2H364.8v-33.943h76.416c8.268 0 15.032-7.049 15.032-15.665s-6.764-15.666-15.032-15.666h-50.15l58.8-61.273a12.9 12.9 0 0 0 0-17.658l-4.315-4.5a11.675 11.675 0 0 0-16.944 0l-78.723 82.036c-0.044 0.047-0.074 0.1-0.117 0.152-0.044-0.048-0.073-0.105-0.118-0.152L270.924 234.5a11.676 11.676 0 0 0-16.945 0l-4.314 4.5a12.9 12.9 0 0 0 0 17.658l58.8 61.273h-50.149c-8.268 0-15.033 7.049-15.033 15.666s6.765 15.665 15.033 15.665h76.415V383.2h-76.415c-8.268 0-15.033 7.05-15.033 15.666s6.765 15.666 15.033 15.666h76.415v62.123c0 7.477 5.87 13.594 13.045 13.594h3.977c7.174 0 13.043-6.117 13.043-13.594v-62.124h76.416c8.268 0 15.032-7.05 15.032-15.666S449.48 383.2 441.212 383.2z m273.051 326.536H528.711a14.762 14.762 0 0 1-14.722-14.715 14.761 14.761 0 0 1 14.722-14.714h185.552a14.762 14.762 0 0 1 14.723 14.714 14.762 14.762 0 0 1-14.723 14.715z m-98.692 92.529h-86.858a14.762 14.762 0 0 1-14.724-14.714 14.763 14.763 0 0 1 14.724-14.715h86.858a14.76 14.76 0 0 1 14.722 14.714 14.76 14.76 0 0 1-14.722 14.715z m277.374-228.04a72.434 72.434 0 0 0-16.863-2.2H748.694v-376.68c0-42.665-33.29-77.357-74.229-77.357H215.208c-40.94 0-74.231 34.692-74.231 77.357v573.71c0 42.664 33.291 77.356 74.231 77.356h154.269c8.816 33.605 38.074 58.512 73.077 58.512h111.024c3.045-3.189 6.01-6.447 9.265-9.458 1.07-0.989 2.153-1.776 3.225-2.681 0.057-0.129 0.083-0.265 0.139-0.394-0.033-0.236-0.042-0.474-0.077-0.709-0.109-0.965-0.189-1.7-0.253-2.3-0.294-2.069-0.611-4.138-0.919-6.208-6.5-6.991-21.909-9.322-34.4-9.955h-88c-25.165 0-45.634-21.332-45.634-47.556V651.289c0-1.5-0.082-4.509-0.358-4.537a75.974 75.974 0 0 0-13.035-43.019h492.551a42.371 42.371 0 0 1 14.109 2.685c0.158-0.038 0.264-0.078 0.426-0.115 37.101-8.551 6.69-29.266 2.328-32.078zM266.026 815.481a74.714 74.714 0 0 0 18.51-42.659s0.452-125.788 0.645-129.19a42.791 42.791 0 0 1 13.578-29.18 40.8 40.8 0 0 1 7.35-5.309c0.15-0.079 0.267-0.227 0.42-0.3 0.218-0.106 0.4-0.124 0.61-0.223a38.87 38.87 0 0 1 18.566-4.878c0.817 0 1.635 0.031 2.452 0.076 17.945 1.105 32.334 14.323 36.723 31.524l0.093-0.076v0.489c0.866 3.538 1.364 140.955 1.488 179.728H266.026z m452.987-243.453h-398.4v0.526c-34.972 2.567-63.674 31.757-65.791 69.222-0.183 3.255-0.18 29.03-0.157 46.646l0.037 0.062-0.036 1.012c0.013 8.889 0.031 15.489 0.031 15.489-0.18-0.134 0.254 57.272-0.065 62.956a42.747 42.747 0 0 1-13.563 29.165 39.507 39.507 0 0 1-57.4-3.515c-0.125-0.143-0.2-0.315-0.325-0.46-6.86-5.574-10.666-14.471-12.683-24.151v-46.8c0.218-1.379 0.371-2.194 0.371-2.194v-13.122c-0.129 0.1-0.243 0.224-0.371 0.329V195.345c0-25.59 20-46.427 44.55-46.427h459.254c24.554 0 44.548 20.837 44.548 46.427v376.683z" fill="#2c2c2c" p-id="3693"></path><path d="M160.362 139.013l-15.149 77.44c0 0.007-77.2 566.241-77.2 614.494 0 37.287 27.468 45.722 39.979 47.651l338.017 27.392-24.581-10.718v-16.081L390.7 830.947V670.116l-10.562-73.372 0.327-1.765-100.645 7.395-0.535-1.946s-0.243 0.725-0.716 2.041l-7.035 0.52-0.415 19.6c-17.486 45.778-59.947 147.677-95.543 160.1-8.349 2.908-13.594 6.358-16.71 10.037l-4.308-10.037 5.8-643.681m0 0" fill="#2c2c2c" opacity=".2" p-id="3694"></path><path d="M911.607 925.456h-204a15.279 15.279 0 1 0 0 30.558h204a15.279 15.279 0 1 0 0-30.558zM581 955.254l73.116-18.528-54.447-54.815zM823.446 731.9c0.007 0.007 17.313 15.241 30.527 2.125l1.06-1.052 24.917-24.732c6.844-7.547 6.844-20.377-0.76-27.168l-26.611-26.414a18.468 18.468 0 0 0-26.613 0l-25.791 26.165-0.53 0.537c-2.452 2.606-12.119 14.321-0.362 26.175z m-5.453 38.141c12.517-12.7-0.71-27.451-3.155-29.969l-20.916-20.949c-14.9-14.919-31.991 1.672-32 1.679L619 865.363l53.228 53.582 145.766-148.9z" fill="#2c2c2c" p-id="3695"></path></svg>