<?xml version="1.0" standalone="no"?><!DOCTYPE svg PUBLIC "-//W3C//DTD SVG 1.1//EN" "http://www.w3.org/Graphics/SVG/1.1/DTD/svg11.dtd"><svg t="1740535439757" class="icon" viewBox="0 0 1024 1024" version="1.1" xmlns="http://www.w3.org/2000/svg" p-id="12056" xmlns:xlink="http://www.w3.org/1999/xlink" width="256" height="256"><path d="M993.28 925.696h-962.56c-16.384 0-30.72 14.336-30.72 30.72s14.336 30.72 30.72 30.72h960.512c16.384 0 30.72-14.336 30.72-30.72 2.048-16.384-12.288-30.72-28.672-30.72zM247.808 636.928h4.096c10.24 0 18.432-6.144 20.48-16.384 28.672-114.688 131.072-194.56 247.808-194.56 12.288 0 20.48-10.24 20.48-20.48 0-12.288-10.24-20.48-20.48-20.48-137.216 0-256 92.16-288.768 225.28-2.048 12.288 6.144 22.528 16.384 26.624z m0 0" p-id="12057" fill="#2c2c2c"></path><path d="M112.64 862.208h821.248c55.296 0 88.064-38.912 88.064-104.448 0-47.104-24.576-86.016-63.488-100.352-10.24-196.608-147.456-360.448-331.776-409.6 22.528-24.576 34.816-57.344 34.816-92.16a137.216 137.216 0 0 0-274.432 0c0 32.768 12.288 63.488 30.72 88.064C227.328 286.72 79.872 454.656 67.584 659.456 28.672 675.84 0 714.752 0 759.808c0 55.296 51.2 102.4 112.64 102.4z m415.744-778.24c40.96 0 73.728 32.768 73.728 73.728s-32.768 73.728-73.728 73.728-73.728-32.768-73.728-73.728c-2.048-40.96 32.768-73.728 73.728-73.728zM102.4 714.752c16.384-2.048 28.672-14.336 28.672-30.72 0-212.992 174.08-387.072 387.072-387.072 210.944 0 380.928 174.08 380.928 387.072 0 16.384 12.288 30.72 30.72 30.72 24.576 2.048 32.768 24.576 32.768 45.056 0 40.96-18.432 40.96-26.624 40.96H112.64C88.064 800.768 61.44 782.336 61.44 757.76c2.048-20.48 18.432-40.96 40.96-43.008z m0 0" p-id="12058" fill="#2c2c2c"></path></svg>