<?xml version="1.0" standalone="no"?><!DOCTYPE svg PUBLIC "-//W3C//DTD SVG 1.1//EN" "http://www.w3.org/Graphics/SVG/1.1/DTD/svg11.dtd"><svg t="1740535568416" class="icon" viewBox="0 0 1024 1024" version="1.1" xmlns="http://www.w3.org/2000/svg" p-id="18365" xmlns:xlink="http://www.w3.org/1999/xlink" width="256" height="256"><path d="M115.447172 1014.042483c-23.07531001 0-46.609655-7.13268999-63.205517-19.314759-14.706759-10.54013799-24.01103399-29.519448-26.07668899-52.894896-2.52469002-28.389517 5.526069-56.937931 20.69186199-73.00413801 18.97931001-19.950345 285.39586201-273.70813801 346.23558601-331.63475899l-27.96579301-30.825931a503.878621 503.878621 0 0 1-53.88358699 3.089655c-18.961655 0-34.60413799-1.465379-46.46841301-4.378483-7.89186199-1.942069-21.486345-8.439172-57.02620699-41.383724-22.457379-20.921379-49.78758599-48.834207-76.8-78.689103-23.869793-26.447448-102.4-115.358897-113.328552-154.447448-14.37130998-51.76496601-7.097379-111.633655-5.82620701-121.361656 0.30013799-25.63531001 11.687724-72.209655 52.77131101-72.20965501 26.07669002 0 58.31503399 20.285793 98.286344 61.81075901 22.757517 23.534345 277.486345 283.453793 335.48358699 342.51034499l34.78068901-36.82868999c-15.183448-14.12413801-37.605517-38.294069-42.51365501-62.305103-6.638345-32.609103 0.617931-47.686621 15.006897-77.876966l4.413793-9.074759c24.664276-52.082759 206.706759-219.52441401 237.991724-244.188689C757.336276 3.70758599 767.134897 0 777.25130998 0c16.913655 0 32.873931 11.034483 41.40138001 28.54841401 7.11503399 14.600828 6.797241 30.013793-0.61793099 40.25379299-11.069793 14.918621-172.42041399 185.273379-193.43006901 207.342345-5.208276 6.814897-16.43696601 25.953103-9.79862099 32.944551 0.63558599 0.63558599 1.253517 1.129931 3.160276 1.12993099 8.527448 0 22.121931-10.063448 27.330207-14.75972401 9.957517-10.063448 175.262897-177.999448 190.110896-192.44137898 8.368552-8.262621 18.326069-12.641103 28.919173-12.641103 19.75613799 0 35.398621 15.254069 42.03696499 30.190344 6.638345 14.918621 5.208276 30.013793-3.63696499 40.37738-13.912276 16.401655-180.61241399 204.111448-187.727449 212.056276l-0.476689 0.653241c-2.224552 2.43641401-12.182069 13.78869002-4.59034501 23.852138 1.112276 1.465379 1.906759 1.783172 3.47806901 1.783172 7.11503399 0 18.802759-7.944828 23.869793-12.32331 8.368552-8.598069 175.56303401-177.664 194.206897-196.80220701a36.016552 36.016552 0 0 1 26.07668899-10.55779299c21.009655 0 45.35613801 15.74841401 54.20138 35.04551699 5.526069 12.005517 4.272552 24.346483-3.31917299 33.75669001-0.794483 0.97103399-1.889103 2.43641401-3.478069 4.378483-46.609655 58.24441399-89.917793 108.861793-128.63558601 150.56331-103.98896601 112.110345-142.530207 125.086897-162.42758599 125.08689699-2.542345 0-5.06703399-0.158897-7.450483-0.63558699-33.191724-6.656-62.41103401-26.624-78.53020701-39.441655l-38.558896 46.08L925.64303401 871.106207c11.22869002 11.193379 21.645241 36.98758601 20.23282798 64.741517-1.271172 23.51668999-10.910897 43.30813801-27.96579299 57.096828-15.66013801 12.658759-36.369655 19.632552-58.31503501 19.632551-24.18758599 0-45.832828-8.421517-56.726068-22.227862-10.769655-13.453241-197.208276-228.104828-304.19862099-350.931862L174.856828 991.337931c-13.594483 14.759724-34.60413799 22.704552-59.427311 22.704552z" fill="#2c2c2c" p-id="18366"></path></svg>