<?xml version="1.0" standalone="no"?><!DOCTYPE svg PUBLIC "-//W3C//DTD SVG 1.1//EN" "http://www.w3.org/Graphics/SVG/1.1/DTD/svg11.dtd"><svg t="1740533877556" class="icon" viewBox="0 0 1024 1024" version="1.1" xmlns="http://www.w3.org/2000/svg" p-id="6034" xmlns:xlink="http://www.w3.org/1999/xlink" width="256" height="256"><path d="M239.256979 523.967365a45.430827 45.430827 0 1 0 0 90.906814 45.453407 45.453407 0 1 0 0-90.906814z m0-227.289614a45.475987 45.475987 0 1 0 0.02258 90.929393 45.475987 45.475987 0 0 0-0.02258-90.929393z m0 454.579228a45.475987 45.475987 0 1 0 0.02258 90.929394 45.475987 45.475987 0 0 0-0.02258-90.929394zM921.148401 114.841544H102.874179A90.906814 90.906814 0 0 0 11.967365 205.748357v727.322249a90.906814 90.906814 0 0 0 90.906814 90.906814h818.274222a90.906814 90.906814 0 0 0 90.884234-90.906814V205.748357a90.906814 90.906814 0 0 0-90.884234-90.906813z m45.475987 772.775656a90.951974 90.951974 0 0 1-90.929394 90.929393H148.327585a90.929394 90.929394 0 0 1-90.906813-90.929393V251.201764a90.906814 90.906814 0 0 1 90.906813-90.906814h727.34483a90.929394 90.929394 0 0 1 90.929393 90.906814V887.6172z m-181.881367-590.939449H466.546593a45.430827 45.430827 0 1 0 0 90.929393h318.196428a45.475987 45.475987 0 1 0 0-90.929393z m0 227.289614H466.546593a45.430827 45.430827 0 1 0 0 90.906814h318.196428a45.475987 45.475987 0 1 0 0-90.906814z m0 227.289614H466.546593a45.430827 45.430827 0 1 0 0 90.929394h318.196428a45.475987 45.475987 0 1 0 0-90.929394z" fill="#203646" p-id="6035"></path></svg>