<?xml version="1.0" standalone="no"?><!DOCTYPE svg PUBLIC "-//W3C//DTD SVG 1.1//EN" "http://www.w3.org/Graphics/SVG/1.1/DTD/svg11.dtd"><svg t="1740533913603" class="icon" viewBox="0 0 1024 1024" version="1.1" xmlns="http://www.w3.org/2000/svg" p-id="7119" xmlns:xlink="http://www.w3.org/1999/xlink" width="256" height="256"><path d="M238.81 766.31h282v44.6h-282zM238.81 584.97h352.83v44.6H238.81zM238.81 403.63h418.41v44.6H238.81z" p-id="7120" fill="#2c2c2c"></path><path d="M776.79 960.22h-594.6c-46.42 0-84.18-37.76-84.18-84.18V177.82c0-46.42 37.76-84.18 84.18-84.18h594.6c46.42 0 84.18 37.76 84.18 84.18v230.73h-40.22V177.82c0-24.24-19.72-43.96-43.96-43.96h-594.6c-24.24 0-43.96 19.72-43.96 43.96v698.22c0 24.24 19.72 43.96 43.96 43.96h594.6c24.24 0 43.96-19.72 43.96-43.96V395.73h40.22v480.31c0 46.42-37.76 84.18-84.18 84.18z" p-id="7121" fill="#2c2c2c"></path><path d="M617 254.54H351.17c-33.27 0-60.34-27.07-60.34-60.34V93.64h386.51V194.2c0 33.27-27.07 60.34-60.34 60.34zM331.06 133.86v60.34c0 11.09 9.03 20.11 20.11 20.11H617c11.09 0 20.11-9.03 20.11-20.11v-60.34H331.06zM617.92 780.33l-50.35 19.46 12.16-52.59 304.99-351.47 38.18 33.14z" p-id="7122" fill="#2c2c2c"></path></svg>