<?xml version="1.0" standalone="no"?><!DOCTYPE svg PUBLIC "-//W3C//DTD SVG 1.1//EN" "http://www.w3.org/Graphics/SVG/1.1/DTD/svg11.dtd"><svg t="1730693853397" class="icon" viewBox="0 0 1024 1024" version="1.1" xmlns="http://www.w3.org/2000/svg" p-id="26439" xmlns:xlink="http://www.w3.org/1999/xlink" width="256" height="256"><path d="M495.746032 75.400353h413.573192c32.507937 0 43.343915 9.481481 43.795414 41.989418 0.902998 64.564374 0.451499 129.128748 0 193.693121 0 7.675485-1.354497 14.899471-3.160493 22.574956-2.708995 11.287478-10.38448 17.608466-22.574956 18.059965-11.738977 0.451499-20.31746-3.611993-25.73545-14.447972-4.96649-10.38448-5.869489-21.220459-5.417989-32.507936 0-52.825397-0.451499-106.102293 0.451499-158.92769 0-11.287478-2.708995-14.899471-14.447972-14.899471-259.611993 0.451499-519.223986 0.451499-778.38448 0-11.738977 0-14.447972 3.160494-14.447972 14.447972 0.451499 186.920635 0.451499 373.389771 0 560.310406 0 12.190476 3.160494 15.35097 15.35097 15.35097 123.710758-0.451499 247.873016-0.451499 372.035274-0.451499 7.675485 0 15.35097-0.451499 22.574956 0.451499 19.865961 2.257496 27.089947 10.38448 26.638448 29.347442-0.451499 18.511464-6.772487 24.380952-27.541447 26.186949-5.417989 0.451499-10.38448 0.451499-15.802469 0.451499H83.075838c-37.474427 0-50.116402-12.641975-50.116402-50.567901V124.162257c0-37.925926 12.190476-49.664903 50.567901-49.664903 137.707231 0.902998 274.962963 0.902998 412.218695 0.902999z" fill="#cdcdcd" p-id="26440"></path><path d="M593.269841 400.028219c14.447972 4.96649 32.959436 5.417989 51.019401-0.902999 26.638448-9.481481 45.149912-27.992945 53.276896-55.98589 4.514991-15.802469 14.447972-23.026455 30.70194-22.574956 20.31746 0.451499 40.634921 0.451499 60.952381 0 14.899471 0 23.929453 6.320988 28.895943 20.31746 17.156966 49.213404 50.116402 68.627866 102.4903 59.597884 14.899471-2.708995 25.73545 0.902998 33.410935 14.899471 9.932981 18.511464 20.31746 36.571429 31.604938 54.179894 8.126984 13.093474 6.772487 24.832451-4.063492 34.765432-34.313933 32.959436-32.959436 87.13933 0.451499 118.292769 10.38448 9.932981 11.287478 21.220459 4.063492 32.959436-11.287478 19.414462-23.026455 39.280423-34.313933 58.694885-6.772487 11.738977-16.253968 14.899471-29.347443 12.190476-51.922399-10.38448-85.333333 8.578483-104.296296 59.146385-4.96649 12.641975-12.641975 20.31746-27.089947 19.865961-22.123457-0.451499-44.246914 0-66.37037 0-13.544974 0-21.671958-5.869489-25.283951-18.962963-13.996473-49.213404-59.597884-72.691358-105.650794-59.597884-11.738977 3.160494-21.220459-0.451499-27.089947-10.384479-13.093474-21.220459-25.283951-42.892416-37.474427-64.564374-6.320988-10.835979-3.160494-20.31746 5.41799-28.444445 34.313933-31.153439 35.66843-88.042328 0.451499-119.647266-10.38448-9.481481-11.738977-20.768959-4.514991-32.959436 11.738977-19.414462 23.026455-38.828924 34.313933-58.694885 5.869489-9.481481 13.544974-14.447972 28.444444-12.190476z m300.698413 278.574956c17.156966 6.772487 26.638448-2.708995 32.959436-18.511464 1.354497-3.611993 4.063492-7.223986 6.320987-10.38448 6.320988-8.578483 6.320988-14.899471-1.354497-23.929453-26.186949-32.959436-28.895944-83.075838-4.514991-116.938272 11.738977-16.253968 11.287478-27.992945 0-41.989418-1.805996-2.257496-3.160494-4.96649-4.514991-7.675485-4.514991-10.835979-11.738977-13.544974-24.380953-12.641975-43.343915 3.611993-80.366843-12.190476-101.587301-50.567901-11.738977-21.220459-24.380952-27.541446-46.05291-23.929454h-3.611993c-11.738977-2.257496-16.705467 3.160494-22.123457 13.544974-20.31746 40.183422-53.728395 63.209877-98.878307 60.952381-22.574956-1.354497-32.959436 6.772487-40.634921 24.832451-0.902998 1.805996-1.354497 3.160494-2.257495 4.514992-7.223986 8.578483-6.772487 15.35097 0.902998 25.28395 27.089947 35.66843 27.992945 87.590829 1.805996 121.453263-8.578483 11.287478-9.932981 19.414462-1.354497 30.250441 2.708995 3.611993 4.96649 7.675485 6.772487 12.190476 5.417989 11.738977 12.641975 16.253968 26.638448 14.899471 44.246914-3.611993 80.818342 13.544974 102.0388 52.825397 10.835979 19.865961 22.574956 24.380952 41.989418 22.123457 2.708995-0.451499 5.869489-0.451499 8.578484 0 9.481481 1.354497 13.996473-3.160494 18.059964-11.738977 21.220459-43.343915 56.43739-63.209877 105.199295-64.564374z" fill="#cdcdcd" p-id="26441"></path><path d="M497.100529 881.777778c59.146384 0 118.744268-0.451499 177.890653 0 23.026455 0 34.765432 11.738977 35.216931 32.056437 0.451499 17.608466-9.029982 30.250441-26.638448 32.959436-6.772487 1.354497-13.996473 1.354497-20.76896 1.354497H331.400353c-6.320988 0-12.641975 0-18.962963-0.902998-18.962963-2.708995-28.444444-14.447972-27.992946-33.410935 0.451499-18.962963 10.38448-30.70194 29.798942-31.604938 27.089947-1.354497 54.631393-0.902998 81.721341-0.902998 33.862434 0 67.273369 0 101.135802 0.451499z" fill="#cdcdcd" p-id="26442"></path><path d="M553.989418 257.354497c0 15.35097-0.451499 27.089947 0 38.377425 0 6.320988-3.160494 9.481481-7.675485 12.190477-36.571429 23.929453-73.142857 47.407407-108.811287 71.788359-8.126984 5.417989-12.641975 1.805996-18.511464-1.805996-32.507937-21.220459-65.467372-41.989418-97.52381-63.661376-9.029982-6.320988-15.35097-6.320988-24.380952-0.451499-32.056437 21.220459-64.564374 41.537919-96.169312 63.209877-9.932981 6.772487-15.35097 5.869489-22.123457-3.611993-16.705467-21.671958-17.156966-21.220459 6.320987-36.11993 36.571429-23.477954 74.045855-46.05291 110.165785-69.982363 10.835979-7.223986 18.059965-5.869489 27.541446 0.902998 32.056437 21.220459 64.564374 41.537919 96.169313 62.758378 8.126984 5.417989 13.093474 5.417989 21.220458 0 36.571429-24.380952 73.594356-47.858907 113.777778-73.594357z" fill="#cdcdcd" p-id="26443"></path><path d="M430.730159 563.922399c-1.805996 6.772487 4.063492 16.705467-3.160494 20.31746-5.869489 2.708995-11.738977-5.417989-17.608466-9.029982-29.798942-18.962963-59.597884-37.925926-88.945326-57.791888-9.029982-6.320988-15.802469-5.869489-24.832451 0-31.153439 20.768959-63.661376 40.634921-94.814815 61.85538-10.835979 7.675485-16.705467 7.223986-24.380953-4.063492-14.447972-20.768959-15.35097-20.768959 5.869489-33.862434 38.377425-24.380952 76.75485-47.858907 114.680776-72.691358 8.126984-4.96649 13.544974-5.417989 21.671958 0.451499 30.70194 20.768959 61.855379 41.08642 93.460317 60.500882 13.544974 8.126984 23.477954 16.253968 18.059965 34.313933z" fill="#cdcdcd" p-id="26444"></path><path d="M854.687831 569.791887c-0.902998 53.276896-45.149912 96.169312-97.52381 95.717813-53.276896-0.902998-96.620811-45.601411-95.266314-99.329806 1.354497-52.825397 45.601411-95.717813 98.426808-94.363316 52.373898 0.451499 95.266314 45.149912 94.363316 97.975309zM758.518519 624.87478c30.70194 0 56.43739-25.283951 56.888888-56.43739 0-32.056437-25.283951-56.888889-57.791887-56.888889-30.70194 0-56.43739 25.283951-56.888889 56.43739 0 31.153439 25.283951 56.43739 57.791888 56.888889z" fill="#cdcdcd" p-id="26445"></path></svg>