<?xml version="1.0" standalone="no"?><!DOCTYPE svg PUBLIC "-//W3C//DTD SVG 1.1//EN" "http://www.w3.org/Graphics/SVG/1.1/DTD/svg11.dtd"><svg t="1740484868970" class="icon" viewBox="0 0 1024 1024" version="1.1" xmlns="http://www.w3.org/2000/svg" p-id="2640" xmlns:xlink="http://www.w3.org/1999/xlink" width="256" height="256"><path d="M960 245.333333H64c-36.266667 0-64 27.733333-64 64v597.333334c0 36.266667 27.733333 64 64 64h896c36.266667 0 64-27.733333 64-64v-597.333334c0-36.266667-27.733333-64-64-64z m21.333333 661.333334c0 12.8-8.533333 21.333333-21.333333 21.333333H64c-12.8 0-21.333333-8.533333-21.333333-21.333333v-597.333334c0-12.8 8.533333-21.333333 21.333333-21.333333h896c12.8 0 21.333333 8.533333 21.333333 21.333333v597.333334zM192 202.666667h640c10.666667 0 21.333333-10.666667 21.333333-21.333334s-8.533333-21.333333-21.333333-21.333333H192c-10.666667 0-21.333333 10.666667-21.333333 21.333333s10.666667 21.333333 21.333333 21.333334zM281.6 100.266667h462.933333c12.8 0 25.6-10.666667 25.6-25.6 0-12.8-10.666667-25.6-25.6-25.6H281.6c-12.8 0-25.6 10.666667-25.6 25.6 0 12.8 10.666667 25.6 25.6 25.6z" p-id="2641"></path><path d="M682.666667 450.133333c-4.266667-27.733333-19.2-42.666667-44.8-44.8-14.933333 2.133333-27.733333 8.533333-36.266667 19.2l-89.6 128-89.6-128c-8.533333-10.666667-19.2-17.066667-36.266667-19.2-27.733333 4.266667-42.666667 19.2-44.8 44.8 0 8.533333 2.133333 19.2 8.533334 25.6l76.8 108.8h-51.2c-17.066667 2.133333-27.733333 10.666667-27.733334 25.6 2.133333 14.933333 10.666667 25.6 27.733334 25.6h89.6v40.533334h-89.6c-17.066667 2.133333-27.733333 10.666667-27.733334 25.6 2.133333 14.933333 10.666667 25.6 27.733334 25.6h89.6v74.666666c2.133333 27.733333 17.066667 40.533333 44.8 40.533334s44.8-12.8 44.8-40.533334v-74.666666h89.6c17.066667-2.133333 27.733333-10.666667 27.733333-25.6-2.133333-14.933333-10.666667-25.6-27.733333-25.6H554.666667v-40.533334h89.6c17.066667-2.133333 27.733333-10.666667 27.733333-25.6-2.133333-14.933333-10.666667-25.6-27.733333-25.6h-51.2l76.8-108.8c8.533333-6.4 12.8-14.933333 12.8-25.6z" p-id="2642"></path></svg>