<?xml version="1.0" standalone="no"?><!DOCTYPE svg PUBLIC "-//W3C//DTD SVG 1.1//EN" "http://www.w3.org/Graphics/SVG/1.1/DTD/svg11.dtd"><svg t="1740533860715" class="icon" viewBox="0 0 1024 1024" version="1.1" xmlns="http://www.w3.org/2000/svg" p-id="4967" xmlns:xlink="http://www.w3.org/1999/xlink" width="256" height="256"><path d="M873.6 1.088H146.56A145.472 145.472 0 0 0 1.024 146.56V873.6a145.408 145.408 0 0 0 145.408 145.536h727.104a145.472 145.472 0 0 0 145.472-145.536V146.56A145.472 145.472 0 0 0 873.6 1.088h0.064z m72.896 872.768a72.448 72.448 0 0 1-72.704 72.64H146.752a72.448 72.448 0 0 1-51.584-21.248 72.128 72.128 0 0 1-21.44-51.392V146.56c0-40.192 32.64-72.832 72.96-72.832h727.04a72.768 72.768 0 0 1 72.768 72.832v727.296zM828.416 328.32H537.536a36.352 36.352 0 1 0 0 72.704h290.88a36.352 36.352 0 1 0 0-72.704z m0 291.008H537.536a36.288 36.288 0 1 0 0 72.64h290.88a36.288 36.288 0 1 0 0-72.64zM319.36 528.384a127.296 127.296 0 1 0 0 254.528 127.296 127.296 0 0 0 0-254.464v-0.064z m38.592 165.888a54.592 54.592 0 1 1-78.016-76.416 54.592 54.592 0 0 1 78.016 76.416z m44.8-427.968l-119.68 119.744-47.168-46.976a36.288 36.288 0 1 0-51.328 51.392L257.28 463.168a36.288 36.288 0 0 0 51.328 0l145.472-145.408a36.352 36.352 0 0 0-51.328-51.456z" fill="#2c2c2c" p-id="4968"></path></svg>