<?xml version="1.0" standalone="no"?><!DOCTYPE svg PUBLIC "-//W3C//DTD SVG 1.1//EN" "http://www.w3.org/Graphics/SVG/1.1/DTD/svg11.dtd"><svg t="1743043839126" class="icon" viewBox="0 0 1024 1024" version="1.1" xmlns="http://www.w3.org/2000/svg" p-id="16232" xmlns:xlink="http://www.w3.org/1999/xlink" width="200" height="200"><path d="M494.08 873.408l-251.776 132.352a38.4 38.4 0 0 1-55.68-40.448l48-280.448a38.4 38.4 0 0 0-11.008-33.92L19.904 452.224a38.4 38.4 0 0 1 21.312-65.472l281.536-40.96a38.4 38.4 0 0 0 28.928-20.928L477.568 69.76a38.4 38.4 0 0 1 68.864 0l125.888 255.168a38.4 38.4 0 0 0 28.928 20.992l281.6 40.896a38.4 38.4 0 0 1 21.248 65.472l-203.712 198.592a38.4 38.4 0 0 0-11.072 33.984l48.128 280.448a38.4 38.4 0 0 1-55.744 40.448l-251.84-132.352a38.4 38.4 0 0 0-35.712 0z m-29.76-56.64a102.4 102.4 0 0 1 95.36 0l205.888 108.224-39.36-229.248a102.4 102.4 0 0 1 29.44-90.688l166.656-162.368-230.272-33.472A102.4 102.4 0 0 1 615.04 353.28L512 144.64 409.024 353.28a102.4 102.4 0 0 1-77.056 56l-230.272 33.472 166.592 162.368a102.4 102.4 0 0 1 29.44 90.688l-39.296 229.248 205.888-108.224z" fill="#C0C4CC" p-id="16233"></path><path d="M494.08 873.408l-251.776 132.352a38.4 38.4 0 0 1-55.68-40.448l48-280.448a38.4 38.4 0 0 0-11.008-33.92L19.904 452.224a38.4 38.4 0 0 1 21.312-65.472l281.536-40.96a38.4 38.4 0 0 0 28.928-20.928L477.568 69.76a38.4 38.4 0 0 1 68.864 0l125.888 255.168a38.4 38.4 0 0 0 28.928 20.992l281.6 40.896a38.4 38.4 0 0 1 21.248 65.472l-203.712 198.592a38.4 38.4 0 0 0-11.072 33.984l48.128 280.448a38.4 38.4 0 0 1-55.744 40.448l-251.84-132.352a38.4 38.4 0 0 0-35.712 0z" fill="#FFD659" p-id="16234"></path></svg>