<?xml version="1.0" standalone="no"?><!DOCTYPE svg PUBLIC "-//W3C//DTD SVG 1.1//EN" "http://www.w3.org/Graphics/SVG/1.1/DTD/svg11.dtd"><svg t="1743044966481" class="icon" viewBox="0 0 1024 1024" version="1.1" xmlns="http://www.w3.org/2000/svg" p-id="26471" xmlns:xlink="http://www.w3.org/1999/xlink" width="200" height="200"><path d="M0 0h1024v1024H0z" fill="#707070" fill-opacity="0" p-id="26472"></path><path d="M807.850667 610.261333l103.637333 60.714667a42.666667 42.666667 0 0 1 21.077333 36.821333v122.581334a42.666667 42.666667 0 0 1-21.077333 36.821333l-103.637333 60.714667a42.666667 42.666667 0 0 1-43.136 0l-103.637334-60.714667a42.666667 42.666667 0 0 1-21.077333-36.821333v-122.581334a42.666667 42.666667 0 0 1 21.077333-36.821333l103.637334-60.714667a42.666667 42.666667 0 0 1 43.136 0zM667.434667 52.053333c21.973333 0 40.021333 16.64 42.368 37.973334v1.408h152.96c35.968 0 65.621333 27.221333 69.418666 62.208l0.426667 7.594666v360.448a40.576 40.576 0 0 1-80.768 5.973334l-0.426667-5.973334-0.042666-95.146666H172.544l0.042667 424.832h277.674666c20.394667 0 37.248 15.061333 40.149334 34.602666l0.426666 5.973334a40.618667 40.618667 0 0 1-34.56 40.192l-5.973333 0.426666H161.194667A69.845333 69.845333 0 0 1 91.818667 870.4l-0.426667-7.594667V161.237333c0-35.968 27.306667-65.621333 62.250667-69.418666l7.594666-0.426667h152.917334l0.085333-1.706667a42.624 42.624 0 0 1 84.693333 0.298667v1.450667h226.090667l0.085333-1.749334a42.624 42.624 0 0 1 42.325334-37.632z m118.869333 631.296c-46.677333 0-84.48 38.4-84.48 85.76 0 47.36 37.802667 85.717333 84.48 85.717334 46.634667 0 84.48-38.4 84.48-85.76 0-47.36-37.845333-85.76-84.48-85.76zM313.941333 172.586667H172.586667v168.789333h678.784V172.586667h-141.354667v1.109333a42.624 42.624 0 0 1-84.906667 4.693333l-0.298666-4.693333v-1.109333h-225.706667l0.085333 1.109333a42.624 42.624 0 0 1-84.992 4.693333l-0.213333-4.693333-0.042667-1.109333z" fill="#707070" p-id="26473"></path></svg>