<?xml version="1.0" standalone="no"?><!DOCTYPE svg PUBLIC "-//W3C//DTD SVG 1.1//EN" "http://www.w3.org/Graphics/SVG/1.1/DTD/svg11.dtd"><svg t="1749179434737" class="icon" viewBox="0 0 1024 1024" version="1.1" xmlns="http://www.w3.org/2000/svg" p-id="4490" xmlns:xlink="http://www.w3.org/1999/xlink" width="200" height="200"><path d="M498.596 482.29H345.42v57.307h210.478V274.196h-57.301v208.093z m79.089 162.695h379.88v57.302h-379.88v-57.302z m0 128.78h379.88v57.307h-379.88v-57.307z m0 128.785h379.88v57.307h-379.88V902.55zM102.523 382.291a28.664 28.664 0 0 0 23.367 2.559l190.81-61.886c15.053-4.882 23.298-21.04 18.415-36.089-4.882-15.053-21.04-23.298-36.093-18.415l-123.346 39.999c15.994-26.116 35.17-50.537 57.371-72.744 73.767-73.767 171.846-114.388 276.168-114.388s202.396 40.622 276.162 114.388S899.77 407.561 899.77 511.883c0 26.428-2.616 52.45-7.71 77.78h58.303c4.465-25.5 6.709-51.47 6.709-77.78 0-60.45-11.846-119.103-35.205-174.337-22.56-53.335-54.85-101.226-95.969-142.349-41.123-41.123-89.017-73.409-142.348-95.969-55.233-23.361-113.891-35.207-174.335-35.207-60.449 0-119.107 11.846-174.337 35.208-53.335 22.56-101.231 54.846-142.349 95.969-23.98 23.98-44.934 50.278-62.728 78.601l-20.738-105.655c-3.043-15.528-18.105-25.642-33.632-22.6-15.528 3.048-25.643 18.105-22.6 33.637l36.102 183.932a28.67 28.67 0 0 0 13.588 19.178z m23.497 205.651H67.768c5.759 33.679 15.368 66.545 28.79 98.278 22.56 53.334 54.85 101.225 95.972 142.348 41.123 41.123 89.014 73.409 142.349 95.969 54.112 22.888 111.518 34.712 170.668 35.182v-57.324c-102.95-0.941-199.595-41.446-272.499-114.349-55.502-55.502-92.238-124.771-107.028-200.104z" p-id="4491" fill="#8a8a8a"></path></svg>