<?xml version="1.0" standalone="no"?><!DOCTYPE svg PUBLIC "-//W3C//DTD SVG 1.1//EN" "http://www.w3.org/Graphics/SVG/1.1/DTD/svg11.dtd"><svg t="1743043920132" class="icon" viewBox="0 0 1024 1024" version="1.1" xmlns="http://www.w3.org/2000/svg" p-id="22493" xmlns:xlink="http://www.w3.org/1999/xlink" width="200" height="200"><path d="M926.47619 975.238095 97.52381 975.238095c-53.857524 0-97.52381-43.666286-97.52381-97.52381L0 146.285714c0-53.857524 43.666286-97.52381 97.52381-97.52381l828.952381 0c53.857524 0 97.52381 43.666286 97.52381 97.52381l0 731.428571C1024 931.57181 980.333714 975.238095 926.47619 975.238095zM975.238095 146.285714c0-26.940952-21.820952-48.761905-48.761905-48.761905L97.52381 97.52381C70.582857 97.52381 48.761905 119.344762 48.761905 146.285714l0 121.904762 926.47619 0L975.238095 146.285714zM975.238095 316.952381 48.761905 316.952381l0 560.761905c0 26.940952 21.820952 48.761905 48.761905 48.761905l828.952381 0c26.940952 0 48.761905-21.820952 48.761905-48.761905L975.238095 316.952381zM457.898667 763.12381l-17.237333 17.212952-151.04-151.04 34.474667-34.474667 131.82781 131.85219 239.34781-238.738286 36.303238 36.181333-256.658286 256L457.898667 763.12381z" p-id="22494" fill="#707070"></path></svg>