<?xml version="1.0" standalone="no"?><!DOCTYPE svg PUBLIC "-//W3C//DTD SVG 1.1//EN" "http://www.w3.org/Graphics/SVG/1.1/DTD/svg11.dtd"><svg t="1743043876746" class="icon" viewBox="0 0 1024 1024" version="1.1" xmlns="http://www.w3.org/2000/svg" p-id="19371" xmlns:xlink="http://www.w3.org/1999/xlink" width="200" height="200"><path d="M97.28 95.744v832h829.44V95.744H97.28z m518.144 87.04h51.712v52.224h-51.712V182.784z m-259.072 0h51.712v52.224H356.352V182.784z m535.552 710.656H132.096V321.536h759.808v571.904z" p-id="19372" fill="#707070"></path><path d="M247.296 476.672H496.64v13.824H365.568v223.744h-13.824V491.008H247.296v-14.336z m169.472 46.592l51.712 146.432-12.8 4.608-52.224-146.432 13.312-4.608z m117.76 196.608l6.656-219.648c0-4.608 1.024-8.704 3.072-12.8 2.048-4.096 4.096-7.168 7.168-10.24 3.072-3.072 6.144-5.12 10.24-7.168 4.096-1.536 8.192-2.56 12.8-2.56h161.792c4.608 0 8.704 1.024 12.8 2.56s7.68 4.096 10.752 7.168 5.632 6.656 7.168 10.752c2.048 4.096 2.56 8.192 2.56 12.8V686.08c0 4.608-1.024 8.704-2.56 12.8s-4.096 7.68-7.168 10.752c-3.072 3.072-6.656 5.12-10.752 7.168-4.096 1.536-8.192 2.56-12.8 2.56h-15.36v-13.824h15.36c5.632 0 9.728-2.048 13.312-5.632 3.584-3.584 5.12-8.192 5.12-13.312V500.736c0-5.12-2.048-9.728-5.632-13.312-3.584-3.584-8.192-5.632-13.312-5.632h-161.792c-5.12 0-9.728 2.048-13.312 5.632-3.584 3.584-5.632 8.192-6.144 13.312l-6.144 219.648-13.824-0.512z m126.464-219.648v25.6h69.12v13.824h-69.12v35.328h65.536v13.824h-144.896v-13.824h65.536v-35.328H578.56v-13.824h68.608v-25.6h13.824zM609.28 693.248c-7.68 0-14.336-2.56-19.968-8.192-5.632-5.12-8.192-11.776-8.192-19.456v-27.648c0-4.096 0.512-7.68 2.048-10.752s3.584-6.144 6.144-8.704 5.632-4.608 9.216-6.144 7.168-2.048 11.264-2.048h90.112c4.096 0 7.68 0.512 10.752 2.048 3.584 1.536 6.144 3.584 8.704 6.144s4.608 5.632 6.144 8.704c1.536 3.584 2.048 7.168 2.048 10.752v27.648c0 7.68-2.56 14.336-8.192 19.456s-11.776 8.192-19.968 8.192H609.28z m90.112-13.824a13.98784 13.98784 0 0 0 13.824-13.824v-27.648a13.98784 13.98784 0 0 0-13.824-13.824H609.28a13.98784 13.98784 0 0 0-13.824 13.824v27.648a13.98784 13.98784 0 0 0 13.824 13.824h90.112z" fill="#707070" p-id="19373"></path></svg>