<?xml version="1.0" standalone="no"?><!DOCTYPE svg PUBLIC "-//W3C//DTD SVG 1.1//EN" "http://www.w3.org/Graphics/SVG/1.1/DTD/svg11.dtd"><svg t="1743043866461" class="icon" viewBox="0 0 1024 1024" version="1.1" xmlns="http://www.w3.org/2000/svg" p-id="18341" xmlns:xlink="http://www.w3.org/1999/xlink" width="200" height="200"><path d="M271.058186 180.707867c16.143021 0 30.117576-13.372204 30.117576-29.816401V29.81881A29.756165 29.756165 0 0 0 271.058186 0.002409c-16.143021 0-30.117576 13.372204-30.117576 29.816401v121.012421c0 16.865843 13.492674 29.876636 30.117576 29.876636zM752.939405 180.707867c16.143021 0 30.117576-13.372204 30.117576-29.816401V29.81881A29.756165 29.756165 0 0 0 752.939405 0.002409c-16.143021 0-30.117576 13.372204-30.117576 29.816401v121.012421c0 16.865843 13.492674 29.876636 30.117576 29.876636zM391.40802 120.472714h241.241786A29.756165 29.756165 0 0 0 662.586676 90.355138c0-16.143021-13.432439-30.117576-29.997106-30.117576H391.40802A29.756165 29.756165 0 0 0 361.410914 90.355138c0 16.143021 13.432439 30.117576 29.997106 30.117576zM346.231656 728.606813H425.862527v18.853602h39.694966V461.222971h-159.020802v300.212h39.694965v-32.828158z m0-229.25499h77.582876v72.282183H346.231656v-72.282183z m0 110.471269H425.862527v80.654869H346.231656v-80.654869z" fill="#707070" p-id="18342"></path><path d="M409.839977 844.137835l29.033343 29.274284c65.294905-45.47754 101.074586-101.676937 107.339042-168.658427h116.79596v105.050106c0 9.155743-8.131746 13.733615-24.455472 13.733615-8.673862 0-23.551945-1.084233-44.754718-3.312934l12.950558 40.718963 56.199397 0.481882c7.469159 0 15.962315-4.09599 25.419234-12.348207 9.517154-8.252216 14.275731-17.347724 14.275732-27.346759V429.418811H508.806332v197.450829c0 62.222912-7.228218 107.519747-21.74489 135.830269s-40.237082 55.476575-77.221465 81.437926z m138.661321-376.590173h114.507024v78.124993H548.501298V467.547662z m0 116.012904h114.507024v82.943805H548.501298V583.560566z" fill="#707070" p-id="18343"></path><path d="M1015.263493 68.911424l-0.060235 0.24094A29.635695 29.635695 0 0 0 994.18119 60.237562h-121.012421a29.756165 29.756165 0 0 0-29.876636 30.117576c0 16.143021 13.372204 30.117576 29.816401 30.117576H963.762438v180.705457H60.235152V120.472714h90.653905A29.756165 29.756165 0 0 0 180.705457 90.355138c0-16.143021-13.372204-30.117576-29.8164-30.117576H29.8164a28.310522 28.310522 0 0 0-20.901597 8.854567 29.69593 29.69593 0 0 0-8.914803 21.142539v812.752911C0 969.667893 53.970697 1024 120.470305 1024h783.056981a120.470305 120.470305 0 0 0 120.470305-121.012421V90.234668a29.69593 29.69593 0 0 0-8.734098-21.323244zM963.762438 421.528006v482.302865a60.235152 60.235152 0 0 1-60.717033 59.933977H120.952186A60.717034 60.717034 0 0 1 60.235152 903.830871V361.413324h903.527286v60.114682z" fill="#707070" p-id="18344"></path></svg>